<svg aria-hidden="true" style="position: absolute; width: 0; height: 0; overflow: hidden;" version="1.1" xmlns="http://www.w3.org/2000/svg" xmlns:xlink="http://www.w3.org/1999/xlink">
<defs>
<symbol id="icon-tg" viewBox="0 0 34 32">
<path d="M32.524 1.034c0.111-0.058 0.246-0.044 0.347 0.033 0.098 0.078 0.142 0.206 0.113 0.328l-5.823 23.804c-0.021 0.086-0.078 0.158-0.154 0.203-0.049 0.027-0.105 0.042-0.16 0.042-0.031 0-0.063-0.005-0.094-0.014l-11.647-3.518c-0.104-0.031-0.185-0.113-0.216-0.215-0.030-0.105-0.006-0.216 0.064-0.298l11.594-13.606-15.094 12.793c-0.084 0.077-0.204 0.102-0.313 0.067l-9.924-3.13c-0.124-0.040-0.213-0.15-0.224-0.28-0.010-0.13 0.058-0.253 0.176-0.312l31.357-15.899zM15.296 24.406l3.218 0.982c0.096 0.029 0.173 0.102 0.208 0.196 0.035 0.093 0.024 0.197-0.030 0.281l-3.218 5.043c-0.062 0.094-0.165 0.149-0.273 0.149-0.031 0-0.061-0.005-0.090-0.013-0.139-0.040-0.234-0.165-0.234-0.308v-6.024c0-0.101 0.048-0.197 0.131-0.258s0.19-0.080 0.287-0.048z"></path>
</symbol>
<symbol id="icon-cup" viewBox="0 0 30 32">
<path d="M13.108 12.49l0.071 0.003c0.259 0 0.508-0.124 0.668-0.332 0.177-0.232 0.224-0.536 0.126-0.81-0.008-0.024-0.815-2.373 0.232-4.33 1.112-1.864 1.474-3.364 1.076-4.46-0.357-0.984-1.163-1.246-1.251-1.271-0.441-0.131-0.92 0.131-1.050 0.574-0.132 0.451 0.123 0.927 0.533 1.048 0.005 0.002 0.119 0.059 0.184 0.238 0.096 0.263 0.198 1.078-0.91 2.945l-0.041 0.069c-0.085 0.141-0.176 0.287-0.275 0.44-1.282 1.987-1.666 3.552-1.142 4.649 0.422 0.886 1.312 1.194 1.778 1.237zM25.036 26.92c-1.133-0.080-2.429-0.144-3.828-0.192 1.277-1.113 2.354-2.556 3.146-4.235 0.387 0.391 0.867 0.677 1.412 0.81 0.238 0.059 0.48 0.088 0.719 0.088 0.548 0 1.087-0.152 1.566-0.447 0.689-0.425 1.174-1.095 1.364-1.888s0.064-1.613-0.356-2.31c-0.704-1.168-2.062-1.675-3.31-1.361 0.054-0.544 0.091-1.096 0.091-1.658 0-0.587-0.47-1.064-1.051-1.064h-19.464c-0.581 0-1.052 0.476-1.052 1.064 0 4.552 1.834 8.574 4.627 11.002-1.396 0.048-2.691 0.112-3.821 0.191-3.937 0.278-5.081 0.543-5.081 1.762s1.145 1.483 5.081 1.762c2.669 0.189 6.213 0.293 9.978 0.293s7.309-0.104 9.978-0.293c3.937-0.278 5.081-0.544 5.081-1.762s-1.144-1.483-5.081-1.762zM25.54 18.825c0.004-0.003 0.008-0.004 0.012-0.005s0.008-0.002 0.012-0.005c0.828-0.509 1.913-0.243 2.418 0.595 0.245 0.405 0.318 0.884 0.207 1.346s-0.392 0.852-0.795 1.099c-0.401 0.248-0.875 0.322-1.33 0.21-0.457-0.113-0.843-0.398-1.087-0.804-0.013-0.021-0.030-0.038-0.047-0.054-0.010-0.009-0.019-0.018-0.028-0.028 0.27-0.751 0.482-1.539 0.638-2.354zM6.415 16.79h17.285c-0.413 5.731-4.132 10.23-8.643 10.23s-8.229-4.5-8.643-10.23zM17.655 12.65l-0.059-0.002c-0.439-0.043-1.034-0.308-1.324-0.917-0.372-0.777-0.138-1.801 0.719-3.127 0.052-0.080 0.101-0.159 0.147-0.235l0.048-0.081c0.66-1.111 0.545-1.515 0.529-1.557 0.003 0.001 0.038 0.017 0.086 0.031-0.202-0.061-0.369-0.198-0.469-0.386-0.101-0.189-0.123-0.405-0.063-0.61 0.119-0.409 0.574-0.662 0.984-0.541 0.116 0.035 0.692 0.242 0.95 0.952 0.279 0.768 0.054 1.742-0.684 2.979-0.574 1.073-0.124 2.404-0.119 2.421l0 0c0.093 0.259 0.048 0.544-0.12 0.763-0.15 0.195-0.384 0.31-0.626 0.31z"></path>
</symbol>
<symbol id="icon-tv" viewBox="0 0 32 32">
<path d="M29.326 8.001h-11.352l4.478-5.375c0.072 0.013 0.133 0.040 0.208 0.040 0.737 0 1.333-0.597 1.333-1.334 0-0.734-0.596-1.334-1.333-1.334-0.733 0-1.333 0.601-1.333 1.334 0 0.161 0.040 0.309 0.092 0.451l-5.18 6.218h-0.488l-5.177-6.218c0.050-0.142 0.089-0.29 0.089-0.451 0-0.734-0.596-1.334-1.333-1.334-0.735 0-1.333 0.601-1.333 1.334 0 0.738 0.599 1.334 1.333 1.334 0.074 0 0.138-0.028 0.208-0.040l4.479 5.375h-11.352c-1.472 0-2.665 1.196-2.665 2.667v18.675c0 1.472 1.194 2.667 2.665 2.667h26.661c1.472 0 2.665-1.194 2.665-2.667v-18.675c0-1.471-1.194-2.667-2.665-2.667zM23.993 26.675c0 1.473-1.193 2.668-2.667 2.668h-15.995c-1.472 0-2.667-1.196-2.667-2.668v-13.339c0-1.474 1.195-2.668 2.667-2.668h15.995c1.474 0 2.667 1.195 2.667 2.668v13.339zM27.921 14.753c-1.051 0-1.904-0.855-1.904-1.906s0.853-1.904 1.904-1.904c1.050 0 1.903 0.852 1.903 1.904s-0.853 1.906-1.903 1.906z"></path>
</symbol>
</defs>
</svg>
